<svg width="18" height="14" viewBox="0 0 18 14" fill="none" xmlns="http://www.w3.org/2000/svg">
<path d="M16.2532 3.65954C16.2626 3.80187 16.2626 3.95026 16.2626 4.09563C16.2626 8.54129 12.756 13.6623 6.34801 13.6623C4.37199 13.6623 2.54025 13.1081 0.99707 12.1542C1.27936 12.1844 1.5491 12.1965 1.83766 12.1965C3.46866 12.1965 4.96793 11.6636 6.16295 10.7611C4.63232 10.7308 3.34634 9.76173 2.90722 8.42924C3.44357 8.50495 3.9266 8.50495 4.47863 8.36867C3.6905 8.21407 2.98211 7.8008 2.4738 7.19906C1.9655 6.59732 1.68864 5.84423 1.69025 5.06774V5.02534C2.15132 5.27669 2.69394 5.43114 3.26165 5.45234C2.7844 5.14525 2.39301 4.72919 2.12218 4.24108C1.85135 3.75296 1.70945 3.20786 1.70907 2.65411C1.70907 2.02724 1.87844 1.45488 2.18268 0.958221C3.05747 1.99797 4.14908 2.84836 5.38655 3.45411C6.62402 4.05986 7.97966 4.40741 9.36536 4.47417C8.87292 2.18774 10.6419 0.337402 12.7685 0.337402C13.7722 0.337402 14.6755 0.743206 15.3122 1.39734C16.0995 1.255 16.8523 0.970334 17.5235 0.588758C17.2632 1.36705 16.7174 2.02421 15.9929 2.4391C16.6954 2.36642 17.3729 2.17866 18.0002 1.91519C17.5266 2.58749 16.9338 3.18408 16.2532 3.65954Z" fill="white"/>
</svg>
