<svg width="336" height="181" viewBox="0 0 336 181" fill="none" xmlns="http://www.w3.org/2000/svg">
<path d="M51.7951 0.117743H52.4239C52.8954 0.117743 53.6814 0.536383 54.7818 1.37366C50.6947 32.0652 48.6512 57.6023 48.6512 77.9849C48.5464 77.9849 48.494 78.5605 48.494 79.7118C47.9177 80.2351 47.2889 80.4967 46.6077 80.4967H46.1361C44.1712 80.4967 43.0185 78.6128 42.6779 74.8451V74.5311C42.6779 58.1256 44.669 33.7398 48.6512 1.37366C49.4634 0.536383 50.5113 0.117743 51.7951 0.117743ZM23.3432 2.94357C24.7317 2.94357 26.4084 4.14716 28.3733 6.55434C29.3165 6.55434 30.1549 9.95579 30.8884 16.7587C33.9275 38.057 36.9665 53.4944 40.0056 63.0708C40.4248 64.6145 40.6344 65.6088 40.6344 66.0536C40.0056 66.6816 39.4816 66.9956 39.0625 66.9956C36.3378 66.9956 34.1895 63.4894 32.6175 56.4772C30.5216 48.2614 27.9542 35.4929 24.9151 18.1716L24.6007 18.0146C24.2863 18.5118 22.138 28.9778 18.1558 49.4127C17.1078 55.3783 16.1123 62.5475 15.1691 70.9203C14.5142 71.6529 13.833 72.0192 13.1256 72.0192H12.8112C10.6367 72.0192 9.32678 71.0773 8.8814 69.1934C8.8814 65.8705 11.1345 53.0496 15.6407 30.7308L20.6709 3.72852C21.5092 3.30988 22.4 3.04823 23.3432 2.94357Z" fill="#222433"/>
<path d="M75.7277 29.0432C78.5572 29.0432 79.9719 29.5665 79.9719 30.6131C80.0767 30.7962 80.1291 31.0056 80.1291 31.241V31.712C80.1291 32.026 79.6575 34.0145 78.7144 37.6776L74.6274 55.5745H74.7846C78.3214 52.7487 81.9368 49.0333 85.6309 44.4282C89.8489 39.3784 92.888 35.2966 94.7481 32.183H94.9053C95.2197 32.8894 95.3768 33.6744 95.3768 34.5378C95.3768 40.6605 88.6175 51.2835 75.099 66.4068C74.575 66.7208 74.051 66.8778 73.527 66.8778H73.3698C71.1953 66.8778 69.6234 64.9416 68.654 61.0692C68.654 59.9441 68.6016 59.1591 68.4968 58.7143C68.4968 57.1183 69.0208 53.4552 70.0688 47.725C69.7806 47.8297 67.6847 50.9695 63.7811 57.1444C60.7158 62.0373 58.6199 64.9678 57.4933 65.9359L57.0218 66.2498H55.9214C52.437 66.2498 49.9743 64.052 48.5333 59.6563C48.4285 58.9498 48.3761 58.3742 48.3761 57.9294V56.8304C48.3761 53.0365 50.3673 47.2279 54.3495 39.4045C58.2269 32.8109 61.8947 29.5142 65.353 29.5142C68.4183 29.5142 71.1953 30.7177 73.6842 33.1249H73.8414C74.8108 30.4038 75.4395 29.0432 75.7277 29.0432ZM54.9782 57.3014V57.7724C62.6807 48.7193 67.6585 42.178 69.9116 38.1486C69.4924 35.9246 69.0732 34.564 68.654 34.0669C66.8987 34.721 64.5932 36.9712 61.7375 40.8174C59.5106 44.0096 57.5195 48.1437 55.7642 53.2197C55.2402 54.9466 54.9782 56.3071 54.9782 57.3014Z" fill="#222433"/>
<path d="M102.49 0C104.586 0 105.634 0.941941 105.634 2.82582C105.634 3.2183 105.267 5.88713 104.533 10.8323L104.848 10.9893H110.978C113.389 11.1986 114.594 12.2976 114.594 14.2861C113.022 15.3327 110.349 15.856 106.577 15.856C106.577 15.9607 105.372 16.1177 102.961 16.327C101.992 18.3417 100.996 23.313 99.9747 31.241C98.9268 40.3726 98.4028 48.1698 98.4028 54.6326V55.5745C98.4028 56.124 98.6124 56.4903 99.0316 56.6735H99.1888C101.494 56.6735 106.262 51.8591 113.493 42.2304C116.454 37.9916 118.445 34.6948 119.467 32.34H119.781V34.6948C119.781 40.7913 115.746 48.5885 107.677 58.0864C103.433 62.6391 100.551 65.3602 99.0316 66.2498H98.8744C94.5516 66.2498 92.0889 63.11 91.4863 56.8304C91.3815 54.3448 91.3291 52.6179 91.3291 51.6498C91.3291 43.3293 92.5343 32.2876 94.9446 18.5248V17.5829C92.5081 17.8969 90.4122 18.0539 88.6568 18.0539C87.4779 18.0539 86.7443 17.2166 86.4561 15.542V15.228C86.4561 14.1814 87.0325 13.6581 88.1853 13.6581C93.8442 12.69 96.6737 11.8004 96.6737 10.9893C97.1715 9.60256 97.9574 6.51509 99.0316 1.72689C99.346 0.575631 100.132 0 101.389 0H102.49Z" fill="#222433"/>
<path d="M124.104 24.8044C125.99 25.1446 126.933 25.4586 126.933 25.7464V25.9034C126.933 27.8919 125.676 32.8109 123.161 40.6605C121.798 47.1494 121.117 51.5974 121.117 54.0046V56.3595C121.222 58.1387 121.432 59.0283 121.746 59.0283C122.139 59.0283 122.873 57.7201 123.947 55.1035C128.348 46.0243 132.383 38.7504 136.051 33.2819C136.575 32.0783 137.413 29.5665 138.566 25.7464C139.116 25.2231 139.587 24.9614 139.98 24.9614H140.138C141.343 24.9614 142.81 26.008 144.539 28.1012C144.539 29.0955 143.701 31.869 142.024 36.4217C140.033 46.5214 139.037 54.1616 139.037 59.3423L139.509 59.6563H139.666C141.814 58.191 144.382 55.4699 147.368 51.4928C156.774 39.0644 161.594 32.6278 161.83 32.183H162.145V32.654C160.939 39.0382 155.595 48.2483 146.111 60.2842C141.998 64.7846 138.959 67.0348 136.994 67.0348C134.924 67.0348 133.719 64.9939 133.378 60.9122V60.4412C133.378 59.0806 133.483 55.3652 133.693 49.2949V49.1379H133.535C131.335 53.1935 128.924 58.3218 126.305 64.523C125.178 65.9882 124.025 66.7208 122.846 66.7208H122.532C119.964 66.7208 117.711 64.209 115.773 59.1853C115.353 57.1444 115.144 55.5222 115.144 54.3186V53.5336C115.144 46.9924 116.611 38.7242 119.545 28.7292C120.646 26.1127 122.165 24.8044 124.104 24.8044Z" fill="#222433"/>
<path d="M159.669 24.4905H160.14C161.607 24.4905 162.341 24.8044 162.341 25.4324C162.839 28.8339 163.088 31.1495 163.088 32.3792C163.454 34.8911 164.751 36.2386 166.978 36.4217C170.856 36.9712 173.318 37.3898 174.366 37.6776C174.89 38.2533 175.152 38.8812 175.152 39.5615V39.8755C175.152 40.4773 174.104 44.2974 172.008 51.3358C171.589 53.5075 171.38 55.4437 171.38 57.1444V57.4584C171.38 59.29 171.799 60.5982 172.637 61.3832H173.109C176.567 61.3832 181.65 54.6326 188.357 41.1314C190.767 35.8461 191.972 32.8109 191.972 32.026H192.444C192.863 32.9679 193.072 33.8052 193.072 34.5378V35.7938C193.072 41.3931 190.138 48.8763 184.269 58.2434C180.261 63.4764 176.593 66.0929 173.266 66.0929H172.637C169.886 66.0929 167.633 64.523 165.878 61.3832C165.564 59.6824 165.406 58.1649 165.406 56.8304V53.2197C165.406 50.577 166.245 46.7046 167.921 41.6024C165.223 41.6024 162.105 40.5035 158.568 38.3056C156.682 36.2909 155.739 33.779 155.739 30.7701V29.9851C155.739 26.636 156.263 24.9614 157.311 24.9614C157.809 24.6475 158.595 24.4905 159.669 24.4905Z" fill="#222433"/>
<path d="M204.94 23.8625H206.041C208.11 23.8625 209.682 25.4324 210.757 28.5722L211.071 30.9271C211.071 35.2966 208.923 40.5296 204.626 46.6261C203.237 48.0913 201.037 48.8239 198.024 48.8239C193.282 48.7193 190.505 48.667 189.693 48.667C188.749 50.6293 188.278 52.8795 188.278 55.4175C188.278 57.9032 188.697 60.5197 189.535 63.267H189.85C198.443 63.267 209.08 53.6383 221.76 34.3808C222.808 33.0726 223.332 32.2876 223.332 32.026H223.646C223.856 32.7063 223.961 33.1773 223.961 33.4389V34.0669C223.961 39.797 219.297 47.6988 209.971 57.7724C206.093 61.0168 204.102 62.6391 203.997 62.6391C199.596 65.4649 196.033 66.8778 193.308 66.8778H191.893C187.859 66.8778 184.872 64.5753 182.933 59.9702C182.409 57.5107 182.147 55.4175 182.147 53.6906C182.147 45.0823 186.916 36.3432 196.452 27.4733C200.015 25.0661 202.844 23.8625 204.94 23.8625ZM191.579 45.3702V45.5271H192.208C196.347 45.5271 199.805 43.6956 202.582 40.0325C205.098 35.3228 206.355 31.1364 206.355 27.4733C201.456 29.8543 196.688 35.2443 192.051 43.6433C191.736 44.3497 191.579 44.9254 191.579 45.3702Z" fill="#222433"/>
<path d="M27.9804 107.215C31.0194 107.869 32.5389 108.654 32.5389 109.569V110.04C32.5389 113.442 30.1287 123.123 25.3081 139.084V139.555C25.4391 140.078 25.5963 140.34 25.7796 140.34C27.0372 140.34 30.2858 136.729 35.5256 129.507C38.9839 124.379 42.4421 118.937 45.9004 113.18H46.0575C46.2671 113.965 46.3719 114.698 46.3719 115.378V116.634C46.3719 124.327 39.927 134.845 27.0372 148.189C25.9368 149.183 24.6269 150.335 23.1074 151.643H22.9502C21.2473 151.643 19.6753 150.91 18.2344 149.445C18.2344 141.726 19.6491 131.784 22.4786 119.617C22.5834 119.094 22.6358 118.413 22.6358 117.576V117.419C18.6012 121.213 15.7717 124.719 14.1474 127.937C12.2611 131.182 9.85076 136.572 6.91649 144.107C5.89474 146.07 5.10877 147.169 4.5586 147.404H4.08702C1.36234 146.619 0 144.683 0 141.595C0 135.761 2.09591 124.824 6.28772 108.785C7.36187 108.471 8.35743 108.314 9.27439 108.314C11.1607 108.444 12.1039 109.282 12.1039 110.825C12.1039 112.212 11.1083 116.503 9.11719 123.699C8.17404 127.362 7.70246 130.188 7.70246 132.176V132.333H7.85965C13.0208 122.286 17.4222 115.169 21.0639 110.982C23.4742 108.471 25.7796 107.215 27.9804 107.215Z" fill="#222433"/>
<path d="M57.3361 104.86H58.4365C60.5062 104.86 62.0781 106.43 63.1523 109.569L63.4667 111.924C63.4667 116.294 61.3184 121.527 57.0218 127.623C55.6332 129.089 53.4325 129.821 50.4197 129.821C45.6777 129.717 42.9006 129.664 42.0884 129.664C41.1453 131.627 40.6737 133.877 40.6737 136.415C40.6737 138.9 41.0929 141.517 41.9312 144.264H42.2456C50.8388 144.264 61.4756 134.636 74.1558 115.378C75.2038 114.07 75.7277 113.285 75.7277 113.023H76.0421C76.2517 113.704 76.3565 114.175 76.3565 114.436V115.064C76.3565 120.794 71.6931 128.696 62.3663 138.77C58.4889 142.014 56.4978 143.636 56.393 143.636C51.9916 146.462 48.4285 147.875 45.7039 147.875H44.2891C40.2545 147.875 37.2678 145.573 35.3291 140.967C34.8051 138.508 34.5432 136.415 34.5432 134.688C34.5432 126.08 39.3113 117.34 48.8477 108.471C52.4108 106.063 55.2402 104.86 57.3361 104.86ZM43.9747 126.367V126.524H44.6035C48.7429 126.524 52.2012 124.693 54.9782 121.03C57.4933 116.32 58.7509 112.134 58.7509 108.471C53.8517 110.852 49.0835 116.242 44.4463 124.641C44.1319 125.347 43.9747 125.923 43.9747 126.367Z" fill="#222433"/>
<path d="M86.4168 104.86H87.5172C89.5869 104.86 91.1588 106.43 92.233 109.569L92.5474 111.924C92.5474 116.294 90.3991 121.527 86.1025 127.623C84.7139 129.089 82.5132 129.821 79.5004 129.821C74.7584 129.717 71.9813 129.664 71.1691 129.664C70.226 131.627 69.7544 133.877 69.7544 136.415C69.7544 138.9 70.1736 141.517 71.0119 144.264H71.3263C79.9195 144.264 90.5563 134.636 103.236 115.378C104.284 114.07 104.808 113.285 104.808 113.023H105.123C105.332 113.704 105.437 114.175 105.437 114.436V115.064C105.437 120.794 100.774 128.696 91.447 138.77C87.5696 142.014 85.5785 143.636 85.4737 143.636C81.0723 146.462 77.5092 147.875 74.7846 147.875H73.3698C69.3352 147.875 66.3485 145.573 64.4098 140.967C63.8859 138.508 63.6239 136.415 63.6239 134.688C63.6239 126.08 68.3921 117.34 77.9284 108.471C81.4915 106.063 84.3209 104.86 86.4168 104.86ZM73.0554 126.367V126.524H73.6842C77.8236 126.524 81.2819 124.693 84.059 121.03C86.574 116.32 87.8316 112.134 87.8316 108.471C82.9324 110.852 78.1642 116.242 73.527 124.641C73.2126 125.347 73.0554 125.923 73.0554 126.367Z" fill="#222433"/>
<path d="M126.029 80.9973H126.658C129.069 80.9973 130.274 82.2532 130.274 84.765C130.274 86.1779 128.335 94.9171 124.458 110.982C122.571 119.486 121.628 126.551 121.628 132.176V135.159C121.628 135.682 121.68 136.467 121.785 137.514C125.951 134.374 130.352 129.874 134.989 124.013C138.264 119.669 140.727 116.006 142.378 113.023H142.849C143.164 113.651 143.321 114.07 143.321 114.279V115.064C142.587 121.344 136.614 131.391 125.401 145.206C124.038 146.776 122.571 147.561 120.999 147.561C117.751 147.561 116.126 143.218 116.126 134.531V132.49C116.126 131.6 116.179 130.188 116.284 128.251C115.733 128.408 113.585 132.071 109.839 139.241C106.983 145.102 104.101 148.032 101.193 148.032H100.721C97.9443 148.032 96.1104 145.363 95.2197 140.026C95.1149 139.424 95.0625 138.586 95.0625 137.514C95.0625 128.801 98.2063 119.591 104.494 109.883C106.145 107.581 107.926 106.43 109.839 106.43C113.402 106.43 115.76 107.79 116.912 110.511C117.122 111.898 117.436 112.997 117.855 113.808H118.013L122.414 94.3414C123.776 85.4453 124.982 80.9973 126.029 80.9973ZM99.9354 139.084C99.9354 140.156 100.145 141.465 100.564 143.008H100.879C103.21 141.02 104.835 138.77 105.752 136.258C111.227 126.21 114.319 120.297 115.026 118.518V118.204C113.349 117.628 112.511 116.215 112.511 113.965C112.511 111.663 112.354 110.511 112.039 110.511C110.048 110.511 107.219 114.645 103.551 122.914C101.141 129.272 99.9354 134.662 99.9354 139.084Z" fill="#222433"/>
<path d="M146.465 102.348H147.251C151.102 102.348 153.407 103.918 154.167 107.058C153.46 108.026 152.621 108.601 151.652 108.785C151.076 108.68 150.604 108.628 150.237 108.628C148.508 108.628 147.303 109.203 146.622 110.354C145.469 111.349 144.893 112.291 144.893 113.18V113.494C144.893 114.515 145.574 115.143 146.936 115.378C148.141 115.378 151.076 116.896 155.739 119.931C162.944 115.43 169.703 113.18 176.017 113.18C176.017 113.076 176.384 113.023 177.117 113.023L177.274 113.337L164.699 119.774C162.236 121.239 160.036 122.914 158.097 124.798C157.258 125.687 156.839 127.937 156.839 131.548C155.582 136.441 154.219 140.209 152.752 142.851C149.792 148.294 146.805 151.015 143.792 151.015C141.172 151.015 139.024 149.288 137.347 145.834V145.363C137.347 140.784 140.91 134.557 148.036 126.681C149.923 125.295 150.866 123.882 150.866 122.443C150.866 120.637 148.508 119.172 143.792 118.047C140.334 116.503 138.605 114.253 138.605 111.296V110.668C138.605 108 140.596 105.278 144.578 102.505L146.465 102.348ZM144.107 143.322C146.203 141.595 147.722 138.822 148.665 135.002C146.203 137.775 144.683 140.549 144.107 143.322Z" fill="#222433"/>
<path d="M206.041 108.157C207.822 108.157 208.713 109.203 208.713 111.296V111.767C206.146 126.132 204.836 135.761 204.783 140.654H204.94C205.36 140.654 206.303 139.136 207.77 136.101C211.254 129.272 216.127 122.312 222.389 115.221C226.188 110.511 229.122 108.157 231.192 108.157C232.213 108.157 233.052 108.785 233.707 110.04C231.296 120.454 229.515 127.414 228.362 130.92H228.519C229.069 130.92 236.353 124.955 250.369 113.023H250.526C250.526 118.178 242.719 126.812 227.105 138.927C226.24 139.581 225.297 141.517 224.275 144.735C219.35 155.908 213.691 165.955 207.298 174.877C204.207 178.959 201.377 181 198.81 181H198.181C196.321 181 194.644 180.006 193.151 178.017C193.151 171.947 199.805 160.225 213.114 142.851C213.245 142.511 215.813 139.633 220.817 134.217C222.022 132.255 223.018 129.219 223.804 125.111C224.118 123.934 224.275 122.783 224.275 121.658C223.777 121.71 221.996 124.117 218.931 128.879C216.363 132.255 213.062 138.273 209.027 146.933C207.324 149.445 205.753 150.701 204.312 150.701C200.749 149.733 198.967 148.006 198.967 145.52C198.836 145.52 198.679 144.578 198.495 142.694L198.653 141.909V140.811C198.653 140.052 199.124 135.708 200.067 127.78C201.246 115.326 202.347 109.099 203.368 109.099C203.788 108.471 204.678 108.157 206.041 108.157ZM200.539 172.993H200.696C202.818 171.031 204.809 168.624 206.669 165.772C212.669 156.405 216.389 149.864 217.83 146.148C215.682 147.43 213.062 150.256 209.971 154.626C203.683 164.935 200.539 171.057 200.539 172.993Z" fill="#222433"/>
<path d="M270.726 103.133C275.101 103.473 279.188 105.2 282.987 108.314C284.873 110.459 285.816 112.866 285.816 115.535C285.816 121.579 281.572 129.272 273.084 138.613C267.608 144.578 262.368 147.561 257.364 147.561C252.701 147.561 249.033 144.683 246.361 138.927C245.313 135.97 244.789 133.144 244.789 130.449C244.789 127.074 245.784 122.207 247.775 115.849C247.88 115.483 247.933 115.273 247.933 115.221L247.775 114.907C247.775 113.73 249.662 110.485 253.434 105.174C254.666 104.022 255.609 103.447 256.264 103.447H257.05L261.451 104.86H262.08C266.219 103.709 269.101 103.133 270.726 103.133ZM250.448 133.118V134.688C250.448 140.654 252.124 143.636 255.478 143.636C258.307 143.636 263.18 139.973 270.097 132.647C276.699 124.379 280 117.838 280 113.023V112.709C280 110.328 278.847 108.811 276.542 108.157C276.123 107.947 275.546 107.843 274.813 107.843H273.241C270.621 107.843 266.062 108.837 259.565 110.825C257.128 112.003 255.557 113.468 254.849 115.221C251.915 122.103 250.448 128.068 250.448 133.118Z" fill="#222433"/>
<path d="M297.959 105.802C299.846 106.142 300.789 106.456 300.789 106.744V106.901C300.789 108.889 299.531 113.808 297.016 121.658C295.654 128.147 294.973 132.595 294.973 135.002V137.357C295.077 139.136 295.287 140.026 295.601 140.026C295.994 140.026 296.728 138.717 297.802 136.101C302.204 127.022 306.238 119.748 309.906 114.279C310.43 113.076 311.268 110.564 312.421 106.744C312.971 106.22 313.443 105.959 313.836 105.959H313.993C315.198 105.959 316.665 107.005 318.394 109.099C318.394 110.093 317.556 112.866 315.879 117.419C313.888 127.519 312.893 135.159 312.893 140.34L313.364 140.654H313.521C315.67 139.188 318.237 136.467 321.224 132.49C330.629 120.062 335.45 113.625 335.686 113.18H336V113.651C334.795 120.035 329.45 129.246 319.966 141.281C315.853 145.782 312.814 148.032 310.849 148.032C308.779 148.032 307.574 145.991 307.234 141.909V141.438C307.234 140.078 307.339 136.362 307.548 130.292V130.135H307.391C305.19 134.191 302.78 139.319 300.16 145.52C299.033 146.985 297.881 147.718 296.702 147.718H296.387C293.82 147.718 291.567 145.206 289.628 140.183C289.209 138.142 288.999 136.519 288.999 135.316V134.531C288.999 127.99 290.466 119.722 293.401 109.726C294.501 107.11 296.021 105.802 297.959 105.802Z" fill="#222433"/>
<path d="M279.91 158.847C293.097 159.094 299.721 160.084 299.721 161.877V162.309C299.721 163.422 284.12 163.113 278.486 163.113C272.852 163.113 261.461 154.581 255.579 154.581C249.698 154.581 245.24 164.659 235.211 164.659C225.182 164.659 216.267 158.476 210.076 156.992C198.622 154.272 182.711 164.041 182.711 162V159.094C182.711 157.61 198.189 152.046 208.714 152.355C212.181 152.231 222.581 160.702 235.397 160.516C239.978 160.455 250.503 150.562 255.456 150.5C265.733 150.376 270.685 158.909 279.91 158.847Z" fill="#222433"/>
</svg>
