<svg width="61" height="18" viewBox="0 0 61 18" fill="none" xmlns="http://www.w3.org/2000/svg">
<path d="M8.93102 16.9703H13.3166L9.05084 10.9567C11.7109 10.2859 12.9331 8.24939 12.9331 5.92542C12.9331 3.19415 11.2077 0.462891 7.37331 0.462891H0.615234V16.9703H4.37771V11.1723H5.12062L8.93102 16.9703ZM4.37771 3.7452H6.87005C8.40379 3.7452 9.1467 4.91916 9.1467 6.02125C9.1467 7.12334 8.42776 8.20147 6.77419 8.20147H4.37771V3.7452Z" fill="black"/>
<path d="M20.4146 17.1859C23.602 17.1859 26.5017 14.8859 26.5017 11.364C26.5017 7.81814 23.602 5.51813 20.4146 5.51813C17.2273 5.51813 14.3516 7.81814 14.3516 11.364C14.3516 14.8859 17.2273 17.1859 20.4146 17.1859ZM20.4146 13.9036C19.0487 13.9036 17.9463 12.8973 17.9463 11.364C17.9463 9.83065 19.0487 8.80044 20.4146 8.80044C21.7806 8.80044 22.883 9.83065 22.883 11.364C22.883 12.8973 21.7806 13.9036 20.4146 13.9036Z" fill="black"/>
<path d="M34.2225 17.1859C37.4098 17.1859 40.3095 14.8859 40.3095 11.364C40.3095 7.81814 37.4098 5.51813 34.2225 5.51813C31.0352 5.51813 28.1594 7.81814 28.1594 11.364C28.1594 14.8859 31.0352 17.1859 34.2225 17.1859ZM34.2225 13.9036C32.8565 13.9036 31.7541 12.8973 31.7541 11.364C31.7541 9.83065 32.8565 8.80044 34.2225 8.80044C35.5885 8.80044 36.6909 9.83065 36.6909 11.364C36.6909 12.8973 35.5885 13.9036 34.2225 13.9036Z" fill="black"/>
<path d="M49.4493 5.80563H47.1008V1.78061H43.554V5.80563H41.517V8.46502H43.554V16.9703H47.1008V8.46502H49.4493V5.80563Z" fill="black"/>
<path d="M61.0003 5.80563H51.1748V9.08794H55.8239L50.8632 14.3588V16.9703H61.0003V13.688H55.9677L61.0003 8.44106V5.80563Z" fill="black"/>
</svg>
